<svg width="96" height="25" viewBox="0 0 96 25" fill="none" xmlns="http://www.w3.org/2000/svg">
<g clip-path="url(#clip0_790_71)">
<path d="M63.8178 0.010437H80.5394V4.01896H73.9061V25.1072H70.5892V4.01896H63.8178V0.010437Z" fill="#6C757D"/>
<path d="M36.3172 0.010437V4.01896H22.9138V10.4674H33.6928V14.4759H22.9138V21.0987H36.3172V25.1072H19.5972V4.01896H19.5958V0.010437H36.3172Z" fill="#6C757D"/>
<path d="M44.6668 0.0209351H40.3264L55.873 25.1178H60.2261L52.4518 12.578L60.2137 0.0400823L55.873 0.0487944L50.2787 9.07269L44.6668 0.0209351Z" fill="#6C757D"/>
<path d="M49.1208 17.9477L46.9472 14.4376L40.3139 25.1369H44.6668L49.1208 17.9477Z" fill="#6C757D"/>
<path fill-rule="evenodd" clip-rule="evenodd" d="M19.7134 25.1073L4.14581 0H0V25.0968H3.31665V5.36443L15.5468 25.1073H19.7134Z" fill="#6C757D"/>
<path d="M81.285 24.954C81.042 24.954 80.8354 24.8447 80.6624 24.6261C80.4894 24.4075 80.4039 24.1429 80.4061 23.8294C80.4039 23.5246 80.4894 23.2628 80.6624 23.0443C80.8354 22.8257 81.042 22.7164 81.285 22.7164C81.5186 22.7164 81.7231 22.8257 81.8961 23.0443C82.0715 23.2628 82.159 23.5246 82.1614 23.8294C82.159 24.0365 82.1185 24.2263 82.0376 24.396C81.9545 24.5686 81.849 24.7038 81.7162 24.8016C81.5859 24.9022 81.4421 24.954 81.285 24.954Z" fill="#6C757D"/>
<path d="M86.9458 14.3814H88.4155V21.7356C88.4133 22.4115 88.3008 22.9896 88.0808 23.4757C87.8583 23.9617 87.5503 24.3327 87.1549 24.5944C86.7616 24.8533 86.3009 24.9856 85.7772 24.9856C85.2985 24.9856 84.8694 24.8734 84.4873 24.6549C84.1053 24.4363 83.8019 24.1084 83.5795 23.677C83.3546 23.2456 83.2444 22.7077 83.2444 22.0635H84.7166C84.7188 22.3454 84.7683 22.5898 84.8626 22.794C84.9569 22.9982 85.0872 23.1535 85.2536 23.2628C85.422 23.3721 85.6155 23.4268 85.8333 23.4268C86.0694 23.4268 86.2716 23.3635 86.4356 23.234C86.5996 23.1075 86.7255 22.9177 86.8133 22.6646C86.8985 22.4144 86.9436 22.1038 86.9458 21.7356V14.3814Z" fill="#6C757D"/>
<path d="M94.4628 17.2575C94.427 16.8117 94.2696 16.4637 93.9955 16.2164C93.7189 15.9661 93.3617 15.8425 92.9234 15.8425C92.6156 15.8425 92.3505 15.9029 92.1303 16.0208C91.91 16.1416 91.7392 16.3026 91.6223 16.5068C91.5055 16.711 91.4471 16.944 91.4424 17.2058C91.4424 17.4243 91.4829 17.6141 91.5616 17.7723C91.6403 17.9334 91.7458 18.0686 91.883 18.1779C92.0177 18.29 92.1683 18.3821 92.3325 18.4568C92.4987 18.5316 92.6651 18.5949 92.8313 18.6467L93.5976 18.8911C93.9056 18.9832 94.2045 19.1069 94.4898 19.265C94.7752 19.4204 95.0337 19.6188 95.2605 19.8575C95.4876 20.0962 95.6674 20.3838 95.8 20.7204C95.9325 21.0568 96 21.4509 96 21.9053C96 22.5179 95.8787 23.0557 95.6336 23.5216C95.3887 23.9847 95.0359 24.3471 94.5729 24.6088C94.1122 24.8677 93.5549 25 92.8988 25C92.265 25 91.7122 24.8735 91.247 24.6204C90.7797 24.3701 90.4154 24.002 90.1525 23.5188C89.8896 23.0356 89.7481 22.446 89.7278 21.7529H91.1842C91.2044 22.1152 91.2943 22.4172 91.4471 22.6617C91.602 22.9033 91.8043 23.0816 92.0516 23.2024C92.3011 23.3203 92.5796 23.3807 92.8876 23.3807C93.2089 23.3807 93.4921 23.3174 93.7369 23.1938C93.9796 23.0701 94.1706 22.8976 94.3078 22.6732C94.4472 22.4517 94.5169 22.19 94.5191 21.8909C94.5169 21.6177 94.4538 21.3904 94.3324 21.2121C94.2089 21.0338 94.0381 20.8843 93.82 20.7635C93.6 20.6427 93.3437 20.5334 93.0515 20.4385L92.1213 20.1336C91.4493 19.9122 90.9166 19.5757 90.5278 19.1241C90.1369 18.6726 89.9435 18.0743 89.9435 17.3237C89.9435 16.7082 90.0738 16.1675 90.337 15.7044C90.5974 15.2414 90.9549 14.8819 91.4066 14.6259C91.8606 14.3671 92.373 14.2405 92.9436 14.2405C93.5235 14.2405 94.0313 14.3671 94.4696 14.6259C94.9077 14.8819 95.2517 15.2385 95.501 15.6929C95.7505 16.1473 95.8809 16.6679 95.8877 17.2575H94.4628Z" fill="#6C757D"/>
</g>
<defs>
<clipPath id="clip0_790_71">
<rect width="96" height="25" fill="white"/>
</clipPath>
</defs>
</svg>
