<svg width="76" height="23" viewBox="0 0 76 23" fill="none" xmlns="http://www.w3.org/2000/svg">
<path d="M32.7643 9.37048L32.7644 9.36951L32.2807 11.6175L32.7643 9.37048Z" fill="#6C757D"/>
<path d="M35.1145 17.6079H35.1149L31.9223 17.6231L35.1145 17.6079Z" fill="#6C757D"/>
<path d="M35.3943 17.3226L35.9504 14.5406L35.3943 17.3232V17.3226Z" fill="#6C757D"/>
<path d="M44.486 4.51113L43.6993 9.28331L44.486 4.51074V4.51113Z" fill="#6C757D"/>
<path d="M46.9716 4.22363H44.7561C44.6332 4.22363 44.5112 4.35302 44.4852 4.51051L43.6985 9.28308L42.912 14.0559C42.8861 14.2133 42.7643 14.3425 42.6412 14.3425H41.2972H41.0733C39.522 14.3425 39.7013 12.9349 40.0192 11.0067C40.0223 10.9874 40.0255 10.9685 40.0284 10.9486L40.0633 10.7054C40.0656 10.6898 40.0679 10.6742 40.0698 10.6599L40.1408 10.165L40.2167 9.63476C40.2397 9.47492 40.2747 9.24113 40.2978 9.09417L40.655 6.80283L41.013 4.51149C41.0377 4.35341 40.957 4.22363 40.8338 4.22363H38.56C38.4374 4.22363 38.3154 4.35341 38.2904 4.5111L37.8014 7.5536L37.3124 10.5955C37.312 10.5971 37.3117 10.599 37.3117 10.6002L37.2663 10.883C36.703 14.2551 36.8524 17.4711 39.9131 17.5716C39.9633 17.5736 40.002 17.5741 40.002 17.5741H44.8063C44.9293 17.5741 45.0509 17.4446 45.0765 17.2869L46.1128 10.8992L47.1487 4.5109C47.1744 4.35302 47.0948 4.22363 46.9716 4.22363Z" fill="#6C757D"/>
<path d="M55.8095 14.3755C55.9324 14.3755 56.0131 14.5047 55.9884 14.6628L55.7731 16.0417" fill="#6C757D"/>
<path d="M55.5583 17.4217L55.7732 16.0419L55.558 17.4221C55.558 17.4217 55.5583 17.4217 55.5583 17.4217Z" fill="#6C757D"/>
<path d="M55.2886 17.7117C55.289 17.7117 55.2895 17.7113 55.2898 17.7113C54.6376 17.7181 52.6784 17.7378 51.2059 17.7378C52.998 17.7378 55.2886 17.7121 55.2886 17.7121V17.7117Z" fill="#6C757D"/>
<path d="M49.8844 12.5994C49.8826 12.4483 50.0137 12.188 50.1366 12.188L49.86 12.1821C49.7354 13.8267 49.8844 12.5994 49.8844 12.5994Z" fill="#6C757D"/>
<path d="M51.4089 17.7371C51.3944 17.7371 51.3796 17.7371 51.3652 17.7379C51.3795 17.7371 51.3944 17.7371 51.4089 17.7371Z" fill="#6C757D"/>
<path d="M55.8095 14.3755C55.9324 14.3755 56.0131 14.5047 55.9884 14.6628L55.7731 16.0417L55.7381 16.2666" fill="#6C757D"/>
<path d="M51.8809 17.7363C51.836 17.7363 51.791 17.7371 51.7468 17.7371C51.7912 17.7371 51.8361 17.7363 51.8809 17.7363Z" fill="#6C757D"/>
<path d="M52.4479 17.7342C52.2687 17.7353 52.0899 17.7368 51.9133 17.7374C52.0899 17.7368 52.2689 17.7353 52.4479 17.7342Z" fill="#6C757D"/>
<path d="M55.2902 17.7113C54.8123 17.7163 53.6324 17.7281 52.4557 17.7341C53.6318 17.7285 54.812 17.7165 55.2902 17.7113Z" fill="#6C757D"/>
<path d="M55.5583 17.4224L55.7384 16.2667L55.558 17.423C55.558 17.4226 55.5583 17.4226 55.5583 17.4221V17.4224Z" fill="#6C757D"/>
<path d="M19.1253 12.6339L19.4693 10.6329L19.0759 12.9202L18.6984 15.25L19.0293 13.2076C19.0549 13.0496 19.0982 12.7914 19.1253 12.6339Z" fill="#6C757D"/>
<path d="M23.2441 4.19006H20.8111C20.688 4.19006 20.5653 4.31906 20.5377 4.47597L20.3071 5.81143L20.0763 7.14748C20.0493 7.30458 20.1277 7.43338 20.2507 7.43338H22.7025C22.8254 7.43338 22.9477 7.30438 22.974 7.14689L23.1971 5.81124L23.4201 4.47675V4.47636C23.4463 4.31906 23.3671 4.19006 23.2441 4.19006Z" fill="#6C757D"/>
<path d="M22.7147 8.63284V8.63245L22.0012 12.9624L22.7147 8.63284Z" fill="#6C757D"/>
<path d="M15.647 22.9792C15.647 22.9792 16.8735 23 17.653 23C17.0609 23 16.0826 22.9857 15.6459 22.979C15.6464 22.979 15.6467 22.9792 15.647 22.9792Z" fill="#6C757D"/>
<path d="M22.5387 8.34576H20.0867C19.9638 8.34576 19.8409 8.47476 19.8138 8.63225L19.4693 10.6332L19.1253 12.6341C19.0983 12.7914 19.0548 13.0496 19.0292 13.2075L18.6983 15.25L18.3675 17.2924C18.3418 17.4497 18.289 17.7043 18.2497 17.8573C18.2497 17.8573 17.7916 19.6452 17.0214 19.6249C16.9887 19.6239 16.9569 19.6235 16.9253 19.6225C16.5523 19.613 16.2589 19.6061 16.2589 19.6061H16.2583C16.1357 19.6038 16.012 19.7297 15.9835 19.8862L15.729 21.2888L15.4751 22.6902C15.4465 22.8469 15.5237 22.9763 15.6457 22.9788C16.0826 22.9855 17.0607 22.9999 17.6528 22.9999C19.5765 22.9999 20.5906 21.602 21.2405 17.5796L22.0013 12.9628L22.7148 8.63264C22.7409 8.47476 22.6615 8.34596 22.5387 8.34576Z" fill="#6C757D"/>
<path d="M57.372 17.5742C57.2489 17.5742 57.169 17.4448 57.195 17.2867L59.0396 5.9541" fill="#6C757D"/>
<path d="M57.2217 17.4306C57.2068 17.3517 57.2155 17.1581 57.2417 17L58.1173 11.6207L57.1949 17.2871C57.1691 17.445 57.2488 17.5744 57.3717 17.5744H57.5958C57.4726 17.5742 57.2369 17.5096 57.2217 17.4306Z" fill="#6C757D"/>
<path d="M59.7898 17.5096C59.7227 17.5451 59.5672 17.5742 59.444 17.5742H59.6681C59.791 17.5742 59.9118 17.4448 59.9359 17.2863L59.9807 16.9988C59.956 17.1569 59.8568 17.4739 59.7898 17.5096Z" fill="#6C757D"/>
<path d="M60.3091 14.8679L60.6385 12.7333C60.6382 12.7346 60.6382 12.7364 60.6379 12.7374L60.3091 14.8679Z" fill="#6C757D"/>
<path d="M67.5873 6.71326L67.6889 7.26399C67.7169 7.42168 67.6392 7.54951 67.5166 7.5499" fill="#6C757D"/>
<path d="M60.6379 12.7331C60.6623 12.5752 60.7031 12.319 60.7284 12.1628L61.0801 10.0015L60.6818 12.4495L60.6379 12.7331Z" fill="#6C757D"/>
<path d="M59.07 5.76831C59.0454 5.92073 59.0142 6.11354 58.9931 6.24098L58.1177 11.6203L59.0399 5.9539L59.07 5.76831Z" fill="#6C757D"/>
<path d="M67.6884 7.26397L67.5866 6.71323L67.4861 6.14923L67.435 5.86371C67.2361 4.8489 66.6513 4.26303 65.3819 4.26303L63.4055 4.2603L61.5852 4.25757H61.429H59.5369C59.4142 4.25757 59.2925 4.38637 59.2673 4.54445L59.1766 5.10572L59.0697 5.76867L59.04 5.95446L58.1176 11.6209L57.2421 17.0002C57.2161 17.1584 57.2076 17.3518 57.2224 17.4307C57.2372 17.5097 57.4732 17.5743 57.5964 17.5743H59.4438C59.567 17.5743 59.7228 17.5452 59.7896 17.5097C59.8565 17.4742 59.9558 17.1571 59.9803 16.9992L60.3089 14.8681L60.6375 12.7375C60.6377 12.7368 60.6378 12.7348 60.6381 12.7334L60.682 12.4499L61.0803 10.0018L61.4322 7.83968C61.4583 7.68258 61.5792 7.55416 61.7021 7.55377L67.516 7.54987C67.6387 7.54929 67.7164 7.42146 67.6884 7.26397Z" fill="#6C757D"/>
<path d="M75.1729 2.28473C75.0496 2.2859 74.8484 2.28688 74.7252 2.28688H72.8644C72.7411 2.28688 72.5835 2.39597 72.5142 2.52907L68.3992 10.4364C68.3298 10.5699 68.2503 10.5498 68.2229 10.3927L67.9203 8.65076C67.8931 8.49327 67.7697 8.36485 67.647 8.36485H65.0015C64.8783 8.36485 64.8055 8.49151 64.8391 8.64666L66.0244 14.0933C66.0583 14.2485 66.0609 14.5037 66.0304 14.6598L65.5136 17.296C65.483 17.4524 65.5587 17.5804 65.6819 17.5804H68.2963C68.419 17.5804 68.5449 17.4524 68.5753 17.296L69.0925 14.6598C69.1228 14.5035 69.2085 14.2699 69.2825 14.1409L75.9627 2.5115C76.0369 2.38251 75.9968 2.2779 75.8739 2.27888L75.1729 2.28473Z" fill="#6C757D"/>
<path d="M54.1562 9.10609V9.10277C54.1407 9.27783 54.0175 9.40624 53.8945 9.40624H50.5406C50.4247 9.40624 50.3658 9.30281 50.3827 9.17518C50.3838 9.17147 50.3841 9.16815 50.3858 9.16503C50.3858 9.16503 50.3847 9.16542 50.3836 9.1662C50.3844 9.16113 50.3844 9.15664 50.3855 9.15156C50.3855 9.15156 50.3918 9.12053 50.4009 9.07662C50.7211 7.95954 51.3737 7.22653 52.6 7.22653C53.9806 7.22692 54.2498 8.11157 54.1562 9.10609ZM53.1721 4.02869C48.8671 4.02869 47.8469 7.45604 47.2745 10.9152C46.7022 14.4409 46.7516 17.7375 51.2064 17.7375H51.3644C51.3787 17.7371 51.3929 17.7371 51.407 17.7371H51.5318H51.5775H51.6943C51.7119 17.7367 51.7291 17.7367 51.7465 17.7367C51.7912 17.7367 51.836 17.7363 51.8807 17.7363H51.9124C52.0888 17.7359 52.2677 17.735 52.4467 17.7342H52.4558C53.6324 17.7281 54.8124 17.7162 55.2906 17.7114C55.4124 17.709 55.5321 17.5798 55.5573 17.4231L55.7377 16.267L55.7727 16.0418L55.9878 14.663C56.0126 14.5047 55.932 14.3755 55.809 14.3755H51.804C50.2112 14.3755 49.738 13.8203 49.9122 12.1882H56.3144L56.3138 12.189C56.3156 12.189 56.3169 12.1882 56.3184 12.1882C56.42 12.1857 56.5142 12.0938 56.5513 11.9714C56.5583 11.9478 56.5644 11.9234 56.5667 11.8982L56.566 11.899C57.5165 7.19609 57.244 4.02888 53.1716 4.02888L53.1721 4.02869Z" fill="#6C757D"/>
<path d="M32.8249 9.08832L32.7643 9.36954C32.7643 9.37052 32.7641 9.37052 32.7641 9.37052L32.2807 11.6176L31.7975 13.8644C31.764 14.0195 31.636 14.1464 31.5128 14.1464H28.9541C27.0134 14.1464 26.5407 12.1556 27.0134 9.21868C27.4858 6.21502 28.4123 4.34775 30.3225 4.15845C32.933 3.90045 33.4551 6.3085 32.8249 9.08832ZM34.5795 13.9737C34.5795 13.9737 35.7859 10.1316 36.06 7.9125C36.4336 4.94181 35.2997 0.633911 30.9197 0.633911C26.5647 0.633911 24.6737 4.74705 23.952 9.21849C23.2306 13.7221 24.176 17.6719 28.5061 17.6397L31.9223 17.6231L35.1149 17.6079C35.2379 17.6063 35.3637 17.4787 35.3949 17.3228L35.9511 14.5402C35.982 14.3839 35.9069 14.2555 35.784 14.2547L35.2509 14.2506L34.7181 14.2465C34.6133 14.2453 34.5536 14.1569 34.5661 14.0391C34.5685 14.0178 34.5721 13.9959 34.5795 13.9737Z" fill="#6C757D"/>
<path d="M56.1383 11.4021C56.1383 11.5084 56.0727 11.5947 55.9915 11.5947C55.9104 11.5947 55.8448 11.5084 55.8448 11.4021C55.8448 11.2959 55.9104 11.21 55.9915 11.21C56.0726 11.21 56.1383 11.2959 56.1383 11.4021Z" fill="#6C757D"/>
<path d="M1.3255 6.40685C0.122982 8.6738 0.272814 11.623 1.1913 14.0318C1.21317 14.0896 1.23608 14.1464 1.2587 14.2034C1.27313 14.2393 1.28667 14.2762 1.3017 14.3117C1.31018 14.333 1.3197 14.3538 1.32848 14.3741C1.3441 14.4126 1.36017 14.4491 1.37639 14.4866C1.40496 14.5525 1.43427 14.6181 1.46403 14.6837C1.48054 14.7198 1.49691 14.7557 1.51402 14.7918C1.5472 14.8618 1.58113 14.9315 1.61579 15.0006C1.63023 15.0301 1.64436 15.0597 1.65924 15.0882C1.70715 15.1819 1.7561 15.2756 1.80654 15.3675C1.80788 15.3698 1.80937 15.3722 1.81071 15.3745C1.81874 15.3894 1.82752 15.4038 1.83556 15.4186C1.87915 15.4977 1.92439 15.5757 1.96977 15.653C1.98658 15.6811 2.00354 15.7092 2.02036 15.7375C2.06098 15.8046 2.10234 15.8712 2.14445 15.9376C2.16022 15.9623 2.17599 15.9873 2.19191 16.0117C2.2483 16.0988 2.30603 16.1858 2.36495 16.2709C2.366 16.2724 2.36733 16.2742 2.36838 16.2756C2.37076 16.2793 2.37284 16.2814 2.37492 16.2849C2.43236 16.3673 2.49113 16.4479 2.55079 16.5283C2.56924 16.5531 2.58814 16.5781 2.60704 16.6028C2.65316 16.6637 2.70003 16.7233 2.74734 16.7834C2.76654 16.8072 2.78558 16.8318 2.80478 16.8548C2.86801 16.9328 2.93184 17.0096 2.99701 17.0843C2.99821 17.0859 2.99895 17.087 3.00014 17.0876C3.01115 17.1005 3.02261 17.113 3.03362 17.1249C3.09105 17.1903 3.14952 17.2551 3.2083 17.3187C3.23225 17.344 3.2565 17.3692 3.28061 17.3944C3.32867 17.4449 3.37732 17.4947 3.42627 17.5437C3.45216 17.5696 3.47805 17.5956 3.50409 17.6214C3.5581 17.6733 3.61256 17.7248 3.66746 17.775C3.68755 17.7941 3.70689 17.8122 3.72698 17.8304C3.73249 17.8355 3.73754 17.8409 3.7432 17.8458C3.79542 17.8926 3.84854 17.9383 3.90181 17.9834C3.92472 18.0035 3.94749 18.024 3.97055 18.0435C4.05224 18.1112 4.13511 18.1781 4.21903 18.2431C4.24179 18.2601 4.26486 18.2769 4.28762 18.2939C4.34922 18.3405 4.41127 18.3864 4.47406 18.4311C4.50798 18.4551 4.54295 18.4777 4.57717 18.5005C4.62166 18.5312 4.6657 18.562 4.71063 18.5915C4.7209 18.5983 4.73146 18.6048 4.74158 18.6112C4.75958 18.6227 4.77789 18.6338 4.79619 18.6459C4.86612 18.6899 4.9365 18.7326 5.00762 18.7744C5.02279 18.7831 5.03738 18.7919 5.0524 18.8005C5.13379 18.8471 5.21607 18.8924 5.2991 18.9352C5.31904 18.9457 5.33912 18.9557 5.35921 18.9662C5.43598 19.0048 5.5138 19.0433 5.59192 19.0792C5.60189 19.0837 5.61141 19.088 5.62123 19.0923C5.70708 19.1317 5.79368 19.1682 5.88087 19.2037C5.9017 19.2117 5.92253 19.2205 5.94351 19.2285C6.03234 19.2636 6.11997 19.3054 6.21163 19.3276C12.0269 20.7185 13.7162 14.744 13.7162 14.744C12.2974 17.1682 9.77917 17.8077 7.39317 17.0958C7.30271 17.0691 7.21507 17.0322 7.12684 16.9978C7.10437 16.9891 7.0825 16.9803 7.06033 16.9713C6.97418 16.9366 6.88892 16.9003 6.80396 16.8618C6.79236 16.8565 6.7806 16.8507 6.7687 16.8452C6.69267 16.8101 6.61753 16.7732 6.54254 16.7353C6.52141 16.7242 6.50028 16.7139 6.47915 16.7028C6.39702 16.6602 6.31548 16.6159 6.23499 16.5695C6.21832 16.5603 6.20255 16.5505 6.18619 16.541C6.117 16.5 6.04855 16.4586 5.98011 16.4155C5.96047 16.403 5.94068 16.3907 5.92074 16.378C5.86733 16.3439 5.81421 16.3076 5.76154 16.2719C5.72613 16.2475 5.69027 16.2242 5.6553 16.1989C5.59073 16.1536 5.52749 16.1064 5.4644 16.0584C5.44298 16.0425 5.4214 16.0275 5.39983 16.0113C5.31606 15.9465 5.23318 15.8794 5.1512 15.8115C5.12858 15.7925 5.10641 15.7724 5.0841 15.7529C5.02473 15.7026 4.96551 15.6515 4.90733 15.5986C4.88799 15.5818 4.86924 15.563 4.85035 15.5461C4.7941 15.494 4.73846 15.4411 4.68311 15.3876C4.65811 15.3634 4.63341 15.3382 4.60901 15.314C4.55842 15.2631 4.50798 15.2121 4.45814 15.1593C4.43567 15.1358 4.41305 15.1122 4.39088 15.0886C4.3275 15.0201 4.26486 14.9516 4.20296 14.8812C4.19656 14.8736 4.18942 14.8663 4.18243 14.8585C4.11562 14.7812 4.04971 14.7022 3.98483 14.6228C3.96594 14.5992 3.94764 14.5763 3.92919 14.5525C3.88098 14.4926 3.83366 14.4321 3.78724 14.37C3.76864 14.3457 3.74989 14.3215 3.73159 14.2973C3.67237 14.2176 3.61435 14.1372 3.55736 14.0555C3.55453 14.0514 3.55156 14.0478 3.54873 14.0434C3.48847 13.9571 3.4297 13.8687 3.37197 13.7795C3.35634 13.7551 3.34117 13.7315 3.32569 13.7075C3.28269 13.6396 3.24014 13.5709 3.19863 13.5012C3.183 13.4764 3.16738 13.4507 3.15191 13.4251C3.10191 13.3398 3.05296 13.2551 3.00505 13.1687C1.68037 10.7987 1.20439 7.52979 2.26318 4.8454" fill="#6C757D"/>
<path d="M5.05818 4.4971C4.1885 6.13856 4.23581 8.33564 4.91415 10.0716C5.02797 10.3625 5.15578 10.6449 5.29877 10.9137C5.42896 11.1586 5.57344 11.45 5.74633 11.6467C5.80912 11.7372 5.87459 11.8256 5.94155 11.9123C5.95851 11.9351 5.97577 11.9568 5.99303 11.9792C6.0579 12.0616 6.12396 12.143 6.19226 12.2218C6.19508 12.2249 6.19761 12.2284 6.20044 12.231C6.20118 12.2322 6.20193 12.2325 6.20237 12.2337C6.27796 12.3204 6.35593 12.4041 6.43523 12.4863C6.45279 12.5038 6.4702 12.5224 6.48805 12.5403C6.56751 12.6201 6.64845 12.6988 6.73162 12.7735C6.73415 12.7759 6.73623 12.778 6.73861 12.7807C6.77522 12.8137 6.81271 12.8448 6.84976 12.8766C6.86762 12.8918 6.88458 12.908 6.90243 12.9222C6.96165 12.972 7.02176 13.0206 7.08292 13.0672C7.09155 13.0743 7.10003 13.0799 7.10836 13.0866C7.16103 13.1264 7.21445 13.1656 7.26801 13.2036C7.28661 13.2175 7.30565 13.2296 7.3247 13.2425C7.36175 13.2679 7.39865 13.2936 7.43629 13.3184C7.4418 13.3219 7.4476 13.3252 7.45311 13.3284C7.52973 13.3779 7.6071 13.4255 7.68596 13.4706C7.70278 13.4804 7.72018 13.4892 7.73744 13.4985C7.80038 13.5337 7.86421 13.5678 7.92819 13.6002C7.95542 13.6137 7.9828 13.6266 8.01003 13.6396C8.06806 13.6679 8.12653 13.6937 8.1853 13.7196C8.21194 13.7308 8.23797 13.7421 8.26461 13.7528C8.34823 13.7868 8.43081 13.8299 8.518 13.8488C13.0079 14.8246 14.0447 10.2903 14.0447 10.2903C13.1101 12.0551 11.3007 12.8976 9.36967 12.2402C9.28397 12.2107 9.19946 12.1785 9.11554 12.1437C9.0898 12.1334 9.0645 12.1225 9.03906 12.1114C8.9794 12.086 8.92003 12.0589 8.86111 12.0309C8.83418 12.0183 8.80725 12.0052 8.78076 11.9919C8.71619 11.9593 8.6525 11.9258 8.58927 11.8904C8.57201 11.8807 8.5546 11.8721 8.53764 11.8619C8.45833 11.8169 8.38037 11.7688 8.30329 11.7195C8.26371 11.6939 8.22488 11.667 8.1859 11.641C8.16343 11.6256 8.14067 11.6104 8.11805 11.5952C8.06806 11.5594 8.01836 11.5228 7.96926 11.4853C7.95765 11.4765 7.9456 11.4683 7.93385 11.4589C7.87299 11.4123 7.81303 11.3643 7.75381 11.3149C7.73551 11.2995 7.71795 11.2829 7.69965 11.2673C7.66052 11.2339 7.62139 11.2002 7.583 11.166C7.50027 11.0913 7.41963 11.0128 7.34032 10.9332C7.32202 10.9143 7.30357 10.8959 7.28572 10.877C6.44044 10.0017 5.77059 8.80539 5.45203 7.44924C5.11814 6.04255 5.19001 4.46353 5.76835 3.18213" fill="#6C757D"/>
<path d="M8.1975 3.07007C7.68492 4.05951 7.63448 5.28862 7.99024 6.3815C8.36534 7.54151 9.13399 8.45153 10.0312 8.88283C10.0682 8.90098 10.1051 8.91698 10.1426 8.93376C10.159 8.9404 10.1752 8.94762 10.1917 8.95406C10.2446 8.97591 10.2971 9.00129 10.3517 9.01475C12.8308 9.64316 13.5034 7.34596 13.6824 7.00795C13.0933 8.12035 12.1034 8.38732 10.8888 8.00071C10.7928 7.96988 10.6874 7.9246 10.595 7.88167C10.4764 7.82624 10.3596 7.76301 10.2459 7.69159C10.0303 7.55556 9.82467 7.39065 9.63407 7.20194C8.54731 6.12037 7.87195 4.05678 8.58123 2.37628" fill="#6C757D"/>
</svg>
