<svg width="114" height="31" viewBox="0 0 114 31" fill="none" xmlns="http://www.w3.org/2000/svg">
<g clip-path="url(#clip0_790_81)">
<mask id="mask0_790_81" style="mask-type:luminance" maskUnits="userSpaceOnUse" x="0" y="0" width="114" height="31">
<path d="M0 0H114V30.4364H0V0Z" fill="white"/>
</mask>
<g mask="url(#mask0_790_81)">
<path fill-rule="evenodd" clip-rule="evenodd" d="M11.7481 0C8.61527 0 6.65725 3.38182 5.87405 10.1455C7.04885 6.76364 8.41947 5.49545 9.98588 6.34091C10.8796 6.82282 11.5184 8.22345 12.2254 9.77251C13.3772 12.2967 14.7104 15.2182 17.6221 15.2182C20.755 15.2182 22.713 11.8364 23.4962 5.07273C22.3214 8.45454 20.9508 9.72273 19.3844 8.87727C18.4906 8.39536 17.8519 6.99473 17.1448 5.44567C15.9931 2.92151 14.6599 0 11.7481 0ZM5.87405 15.2182C2.74122 15.2182 0.783206 18.6 0 25.3636C1.17481 21.9818 2.54542 20.7136 4.11183 21.5591C5.00556 22.0419 5.64431 23.4416 6.35137 24.9907C7.50311 27.5148 8.83631 30.4364 11.7481 30.4364C14.8809 30.4364 16.8389 27.0545 17.6221 20.2909C16.4473 23.6727 15.0767 24.9409 13.5103 24.0955C12.6166 23.6135 11.9778 22.2129 11.2708 20.6638C10.119 18.1397 8.78583 15.2182 5.87405 15.2182Z" fill="#6C757D"/>
<path fill-rule="evenodd" clip-rule="evenodd" d="M35.2425 12.8246H33.1922V21.3919C33.1922 23.6765 33.8867 23.6408 35.2425 23.498V26.9606C32.4978 27.6746 31.4065 26.0325 31.4065 21.3919V12.8246H29.8854V9.11213H31.4065V4.31746L33.1922 3.17516V9.11213H35.2425V12.8246ZM43.058 9.11213H44.8437V26.9606H43.058V24.3904C42.4297 26.2824 41.4542 27.4247 40.1645 27.4247C37.9158 27.4247 36.0475 23.3195 36.0475 18.0364C36.0475 12.7175 37.9158 8.64807 40.1645 8.64807C41.4542 8.64807 42.4297 9.79037 43.058 11.6466V9.11213ZM40.4456 23.7479C41.9337 23.7479 43.058 21.3562 43.058 18.0364C43.058 14.7166 41.9337 12.3249 40.4456 12.3249C38.9575 12.3249 37.8332 14.7166 37.8332 18.0364C37.8332 21.3562 38.9575 23.7479 40.4456 23.7479ZM47.8199 6.43486C47.1916 6.43486 46.6791 5.29255 46.6791 3.97176C46.6796 3.31889 46.8 2.69312 47.0138 2.23147C47.2277 1.76982 47.5175 1.50991 47.8199 1.50867C48.1223 1.50991 48.4122 1.76982 48.626 2.23147C48.8398 2.69312 48.9602 3.31889 48.9608 3.97176C48.9608 5.29255 48.4482 6.43486 47.8199 6.43486ZM46.9271 26.9606V9.11213H48.7128V26.9606H46.9271ZM50.7796 26.9606V0.901825H52.5653V26.9606H50.7796ZM64.1559 9.11213H66.0408L63.4449 26.9606H61.6922L59.9727 14.9307L58.2366 26.9606H56.4839L53.888 9.11213H55.7729L57.3768 21.4276L59.1129 9.11213H60.8159L62.5355 21.4276L64.1559 9.11213ZM68.2564 6.43486C67.6281 6.43486 67.1155 5.29255 67.1155 3.97176C67.1161 3.31889 67.2365 2.69312 67.4503 2.23147C67.6641 1.76982 67.954 1.50991 68.2564 1.50867C68.5588 1.50991 68.8486 1.76982 69.0625 2.23147C69.2763 2.69312 69.3967 3.31889 69.3973 3.97176C69.3973 5.29255 68.8847 6.43486 68.2564 6.43486ZM67.3635 26.9606V9.11213H69.1492V26.9606H67.3635ZM75.5646 8.64807C77.4164 8.64807 78.7392 11.361 78.7392 16.0016V26.9606H76.9535V16.3943C76.9535 13.6813 76.2259 12.2535 75.1016 12.2535C73.9277 12.2535 73.0017 13.7527 73.0017 17.3938V26.9606H71.216V9.11213H73.0017V11.3967C73.5474 9.54049 74.4402 8.64807 75.5646 8.64807ZM87.2048 1.97273H88.9905V26.9606H87.2048V24.3904C86.5764 26.2824 85.6009 27.4247 84.3112 27.4247C82.0626 27.4247 80.1942 23.3195 80.1942 18.0364C80.1942 12.7175 82.0626 8.64807 84.3112 8.64807C85.6009 8.64807 86.5764 9.79037 87.2048 11.6466V1.97273ZM84.5923 23.7479C86.0804 23.7479 87.2048 21.3562 87.2048 18.0364C87.2048 14.7166 86.0804 12.3249 84.5923 12.3249C83.1042 12.3249 81.9799 14.7166 81.9799 18.0364C81.9799 21.3562 83.1042 23.7479 84.5923 23.7479ZM94.9759 27.4247C92.4792 27.4247 90.6108 23.3195 90.6108 18.0364C90.6108 12.7175 92.4792 8.64807 94.9759 8.64807C96.5963 8.64807 98.0017 10.4686 98.6631 13.253L97.1254 15.1806C96.7616 13.5029 95.9514 12.4319 94.9594 12.4319C93.5043 12.4319 92.3965 14.8236 92.3965 18.0364C92.3965 21.2491 93.5043 23.6408 94.9594 23.6408C95.9514 23.6408 96.7616 22.5342 97.1584 20.8921L98.6961 22.7841C98.0017 25.6041 96.5963 27.4247 94.9759 27.4247ZM101.639 14.0383C101.639 17.2867 106.087 15.3234 106.087 21.9273C106.087 25.497 104.648 27.4247 102.863 27.4247C101.209 27.4247 100.019 25.8183 99.4898 23.2481L101.027 21.3205C101.292 22.9269 101.953 23.8907 102.863 23.8907C103.656 23.8907 104.268 23.3195 104.268 21.8916C104.268 18.7146 99.8205 20.4995 99.8205 14.1097C99.8205 10.7542 101.16 8.64807 102.846 8.64807C104.202 8.64807 105.326 10.0046 105.905 12.3606L104.4 14.1811C104.103 12.7889 103.524 12.1464 102.846 12.1464C102.201 12.1464 101.639 12.7532 101.639 14.0383ZM109.262 14.0383C109.262 17.2867 113.709 15.3234 113.709 21.9273C113.709 25.497 112.271 27.4247 110.485 27.4247C108.832 27.4247 107.641 25.8183 107.112 23.2481L108.65 21.3205C108.914 22.9269 109.576 23.8907 110.485 23.8907C111.279 23.8907 111.891 23.3195 111.891 21.8916C111.891 18.7146 107.443 20.4995 107.443 14.1097C107.443 10.7542 108.782 8.64807 110.469 8.64807C111.824 8.64807 112.949 10.0046 113.527 12.3606L112.023 14.1811C111.725 12.7889 111.146 12.1464 110.469 12.1464C109.824 12.1464 109.262 12.7532 109.262 14.0383Z" fill="#6C757D"/>
</g>
</g>
<defs>
<clipPath id="clip0_790_81">
<rect width="114" height="31" fill="white"/>
</clipPath>
</defs>
</svg>
